<?xml version="1.0" encoding="utf-8"?>
<!-- Generator: Adobe Illustrator 16.0.0, SVG Export Plug-In . SVG Version: 6.00 Build 0)  -->
<!DOCTYPE svg PUBLIC "-//W3C//DTD SVG 1.1//EN" "http://www.w3.org/Graphics/SVG/1.1/DTD/svg11.dtd">
<svg version="1.1" id="Layer_1" xmlns="http://www.w3.org/2000/svg" xmlns:xlink="http://www.w3.org/1999/xlink" x="0px" y="0px"
	 width="50px" height="50px" viewBox="0 0 50 50" enable-background="new 0 0 50 50" xml:space="preserve">
<g>
	<path fill="#FFFFFF" d="M43.146,4.677H6.855c-2.396,0-4.355,1.96-4.355,4.355c0,2.395,1.959,4.355,4.355,4.355h36.292
		c2.395,0,4.354-1.96,4.354-4.355C47.5,6.637,45.54,4.677,43.146,4.677z"/>
	<path fill="#FFFFFF" d="M43.146,20.645H6.855C4.459,20.645,2.5,22.605,2.5,25c0,2.395,1.959,4.354,4.355,4.354h36.292
		c2.395,0,4.354-1.959,4.354-4.354C47.5,22.605,45.54,20.645,43.146,20.645z"/>
	<path fill="#FFFFFF" d="M43.146,36.613H6.855c-2.396,0-4.355,1.959-4.355,4.354s1.959,4.354,4.355,4.354h36.292
		c2.395,0,4.354-1.959,4.354-4.354S45.54,36.613,43.146,36.613z"/>
</g>
</svg>
